<svg width="261" height="196" viewBox="0 0 261 196" fill="none" xmlns="http://www.w3.org/2000/svg">
<g clip-path="url(#clip0)">
<path d="M38.6929 138.939C38.4788 138.602 38.1962 138.318 37.865 138.107C37.5338 137.896 37.1621 137.763 36.7761 137.718C36.3901 137.672 35.9991 137.715 35.6308 137.843C35.2624 137.971 34.9256 138.182 34.6441 138.46L26.252 133.961L26.7737 139.029L34.663 142.525C35.1441 142.985 35.7711 143.246 36.4251 143.258C37.0791 143.27 37.7147 143.033 38.2115 142.591C38.7082 142.149 39.0316 141.533 39.1203 140.86C39.2091 140.187 39.057 139.503 38.6929 138.939H38.6929Z" fill="#A0616A"/>
<path d="M31.2349 140.979C31.083 141.051 30.9182 141.09 30.7512 141.091C30.5841 141.093 30.4185 141.059 30.2652 140.99L22.294 137.398C19.5684 136.17 17.3649 133.956 16.0934 131.168L11.9027 121.98C11.5935 121.567 11.3655 121.095 11.232 120.591C11.0985 120.087 11.0619 119.56 11.1245 119.041C11.1871 118.522 11.3475 118.021 11.5967 117.567C11.8458 117.112 12.1787 116.713 12.5764 116.392C12.9741 116.072 13.4288 115.836 13.9145 115.697C14.4001 115.559 14.9072 115.522 15.4067 115.588C15.9062 115.653 16.3884 115.821 16.8257 116.08C17.2629 116.339 17.6467 116.686 17.955 117.099L25.3212 131.294L32.1229 136.631C32.3176 136.785 32.4622 136.996 32.5372 137.238C32.6122 137.48 32.614 137.739 32.5422 137.982L31.8746 140.222C31.8029 140.462 31.6625 140.674 31.4719 140.829C31.3989 140.888 31.3193 140.939 31.2349 140.979V140.979Z" fill="#CCCCCC"/>
<path d="M11.7183 111.174C15.3032 111.174 18.2093 108.156 18.2093 104.432C18.2093 100.709 15.3032 97.6905 11.7183 97.6905C8.13343 97.6905 5.22731 100.709 5.22731 104.432C5.22731 108.156 8.13343 111.174 11.7183 111.174Z" fill="#A0616A"/>
<path d="M14.3475 192.875L17.5873 192.875L19.1289 179.894L14.3467 179.895L14.3475 192.875Z" fill="#A0616A"/>
<path d="M23.8362 196L13.6532 196L13.6531 191.914L19.9017 191.913C20.9451 191.913 21.9458 192.344 22.6837 193.11C23.4216 193.876 23.8361 194.916 23.8362 196L23.8362 196Z" fill="#2F2E41"/>
<path d="M3.77631 192.875L7.01612 192.875L8.55767 179.894L3.77551 179.895L3.77631 192.875Z" fill="#A0616A"/>
<path d="M13.2649 196L3.08202 196L3.08184 191.914L9.33045 191.913C10.3739 191.913 11.3746 192.344 12.1125 193.11C12.8503 193.876 13.2649 194.916 13.2649 196L13.2649 196Z" fill="#2F2E41"/>
<path d="M2.64486 189.16C2.53322 189.027 2.45012 188.871 2.40112 188.703C2.35212 188.535 2.33836 188.357 2.36076 188.183L8.03343 143.992L22.1271 146.478L23.6313 145.541L19.7417 187.469C19.7094 187.752 19.584 188.015 19.3868 188.213C19.1896 188.411 18.9326 188.533 18.6592 188.557L14.3917 188.927C14.222 188.941 14.0513 188.918 13.891 188.858C13.7308 188.799 13.5847 188.704 13.4628 188.58C13.3409 188.457 13.2459 188.308 13.1842 188.143C13.1226 187.978 13.0958 187.801 13.1056 187.625L14.2104 167.657C14.2124 167.623 14.2021 167.59 14.1817 167.563C14.1613 167.537 14.1321 167.519 14.0998 167.514C14.0675 167.508 14.0344 167.515 14.0069 167.534C13.9794 167.552 13.9594 167.58 13.9509 167.613L8.48478 188.667C8.41643 188.929 8.26698 189.161 8.05949 189.326C7.85199 189.491 7.59796 189.581 7.33655 189.581H3.53965C3.37019 189.581 3.20268 189.544 3.04835 189.471C2.89403 189.398 2.75646 189.292 2.64486 189.16V189.16Z" fill="#2F2E41"/>
<path d="M12.4054 147.086C12.2436 146.933 12.0356 146.845 11.8176 146.836C11.5996 146.826 11.3852 146.896 11.2118 147.034L8.39411 149.31C8.24078 149.435 8.06043 149.518 7.8689 149.553C7.67736 149.588 7.4805 149.573 7.29558 149.511C7.11066 149.448 6.94334 149.34 6.8083 149.194C6.67326 149.049 6.57462 148.871 6.52105 148.677C5.13893 143.65 2.00758 130.994 2.77899 122.087C3.21626 117.039 7.41371 113.202 12.1358 113.524C15.3642 113.747 17.4881 115.681 18.4484 119.273C20.8065 128.09 23.398 144.264 23.8935 147.417C23.9326 147.662 23.8996 147.913 23.7989 148.138C23.6981 148.363 23.5343 148.55 23.3289 148.677C21.9957 149.508 20.4724 149.953 18.9175 149.966C17.0361 149.966 14.7801 149.286 12.4054 147.086Z" fill="#CCCCCC"/>
<path d="M13.4685 150.222C13.5001 149.82 13.4464 149.415 13.3111 149.037C13.1759 148.659 12.9624 148.316 12.6858 148.033C12.4092 147.749 12.0761 147.532 11.71 147.397C11.344 147.262 10.9538 147.212 10.5671 147.25L6.63672 138.331L4.0358 142.653L8.16686 150.461C8.27199 151.131 8.61029 151.739 9.11766 152.167C9.62503 152.596 10.2662 152.817 10.9197 152.787C11.5732 152.758 12.1936 152.481 12.6634 152.008C13.1332 151.535 13.4196 150.9 13.4685 150.222Z" fill="#A0616A"/>
<path d="M6.38788 147.047C6.22541 147.007 6.07294 146.931 5.94039 146.825C5.80784 146.72 5.69817 146.586 5.61852 146.434L1.48011 138.498C0.0648274 135.785 -0.35351 132.631 0.30291 129.621L2.46432 119.706C2.46628 119.183 2.56744 118.665 2.76202 118.183C2.9566 117.701 3.24078 117.263 3.59832 116.895C3.95586 116.527 4.37975 116.236 4.84575 116.038C5.31175 115.84 5.81072 115.739 6.31415 115.742C6.81757 115.744 7.31558 115.85 7.7797 116.053C8.24381 116.255 8.66494 116.551 9.019 116.923C9.37306 117.294 9.65311 117.735 9.84315 118.219C10.0332 118.703 10.1295 119.222 10.1265 119.745L7.48861 135.636L9.6699 144.195C9.73191 144.441 9.71983 144.7 9.6353 144.938C9.55076 145.176 9.39784 145.382 9.19721 145.527L7.34117 146.861C7.14206 147.004 6.90571 147.081 6.66363 147.081C6.57075 147.081 6.47819 147.069 6.38788 147.047V147.047Z" fill="#CCCCCC"/>
<path opacity="0.2" d="M9.59999 126.446L7.22147 136.877L10.6571 145.661L8.27859 137.152L9.59999 126.446Z" fill="black"/>
<path d="M8.01421 109.976C7.43682 109.988 6.86303 109.88 6.32599 109.659C6.08969 109.565 5.84441 109.487 5.60855 109.392C3.52557 108.556 2.15343 106.252 2.10429 103.933C2.05515 101.615 3.21127 99.364 4.92803 97.8808C6.64478 96.3976 8.86841 95.6361 11.095 95.46C13.4934 95.2703 16.1941 95.902 17.5343 97.9766C17.891 98.5289 18.1405 99.1989 17.9291 99.8656C17.8658 100.067 17.7527 100.247 17.6012 100.389C17.0027 100.942 16.406 100.526 15.7959 100.489C14.9572 100.439 14.204 101.144 13.9333 101.97C13.6626 102.796 13.7817 103.705 14.0003 104.548C14.1669 105.054 14.2718 105.581 14.3128 106.115C14.3305 106.383 14.282 106.651 14.172 106.893C14.062 107.136 13.8941 107.346 13.6842 107.502C13.1602 107.831 12.472 107.641 11.9476 107.313C11.4233 106.984 10.9702 106.527 10.4038 106.286C9.83745 106.044 9.07651 106.098 8.74684 106.634C8.64208 106.829 8.57117 107.041 8.53736 107.262C8.24182 108.66 8.30974 108.578 8.0142 109.976L8.01421 109.976Z" fill="#2F2E41"/>
<path d="M200.149 63.2665H39.7303C39.1193 63.2671 38.5334 63.5194 38.1014 63.9682C37.6693 64.417 37.4263 65.0255 37.4258 65.6602V178.567C37.4263 179.202 37.6693 179.81 38.1014 180.259C38.5334 180.708 39.1193 180.96 39.7303 180.961H200.149C200.482 180.961 200.811 180.886 201.113 180.741C201.416 180.596 201.685 180.384 201.901 180.121C201.919 180.1 201.936 180.078 201.951 180.055C202.088 179.88 202.2 179.685 202.281 179.476C202.397 179.188 202.457 178.879 202.456 178.567V108.282H201.798V178.567C201.798 178.901 201.703 179.228 201.525 179.506C201.367 179.751 201.153 179.951 200.902 180.088C200.669 180.213 200.411 180.278 200.149 180.277H39.7303C39.2938 180.277 38.8753 180.096 38.5666 179.776C38.258 179.455 38.0843 179.021 38.0838 178.567V65.6602C38.0843 65.2068 38.2579 64.7721 38.5666 64.4515C38.8753 64.1309 39.2938 63.9506 39.7303 63.95H200.149C200.585 63.95 201.005 64.1301 201.314 64.4507C201.623 64.7714 201.797 65.2064 201.798 65.6602V80.8317H202.456V65.6602C202.455 65.0251 202.212 64.4163 201.779 63.9674C201.346 63.5186 200.76 63.2665 200.149 63.2665V63.2665Z" fill="black"/>
<path d="M202.125 72.8611H37.7538V73.5453H202.125V72.8611Z" fill="black"/>
<path d="M43.3536 70.4525C44.4451 70.4525 45.33 69.5334 45.33 68.3996C45.33 67.2659 44.4451 66.3468 43.3536 66.3468C42.2621 66.3468 41.3772 67.2659 41.3772 68.3996C41.3772 69.5334 42.2621 70.4525 43.3536 70.4525Z" fill="#CCCCCC"/>
<path d="M49.0358 70.4525C50.1273 70.4525 51.0122 69.5334 51.0122 68.3996C51.0122 67.2659 50.1273 66.3468 49.0358 66.3468C47.9442 66.3468 47.0594 67.2659 47.0594 68.3996C47.0594 69.5334 47.9442 70.4525 49.0358 70.4525Z" fill="#CCCCCC"/>
<path d="M54.7179 70.4525C55.8095 70.4525 56.6943 69.5334 56.6943 68.3996C56.6943 67.2659 55.8095 66.3468 54.7179 66.3468C53.6264 66.3468 52.7415 67.2659 52.7415 68.3996C52.7415 69.5334 53.6264 70.4525 54.7179 70.4525Z" fill="#CCCCCC"/>
<path d="M94.4158 167.122C93.7355 167.118 93.0666 166.939 92.4699 166.6C91.8731 166.26 91.3673 165.771 90.9982 165.178C90.6291 164.584 90.4084 163.904 90.356 163.2C90.3037 162.495 90.4213 161.788 90.6983 161.143L95.4068 150.231C91.6986 146.825 88.731 142.637 86.7014 137.947C84.6718 133.257 83.6267 128.172 83.6354 123.03C83.6354 102.94 99.3708 86.5962 118.713 86.5962C138.054 86.5962 153.79 102.94 153.79 123.03C153.79 143.119 138.054 159.463 118.713 159.463C115.329 159.46 111.964 158.945 108.723 157.935L96.7065 166.384C96.0313 166.863 95.2333 167.12 94.4158 167.122V167.122ZM118.713 91.68C112.453 91.6762 106.347 93.6952 101.241 97.4572C96.1359 101.219 92.2836 106.538 90.2186 112.675C88.1535 118.813 87.9781 125.466 89.7164 131.712C91.4548 137.958 95.021 143.488 99.9205 147.535L101.404 148.764L96.3377 160.505L107.964 152.33L109.112 152.73C113.259 154.177 117.659 154.67 122.008 154.175C126.356 153.681 130.549 152.209 134.296 149.864C138.043 147.518 141.254 144.355 143.707 140.592C146.16 136.829 147.795 132.558 148.501 128.073C149.206 123.589 148.964 118.999 147.791 114.621C146.619 110.243 144.544 106.183 141.71 102.721C138.877 99.259 135.352 96.4785 131.381 94.572C127.41 92.6655 123.087 91.6787 118.713 91.68Z" fill="white"/>
<path d="M118.713 126.419C121.416 126.419 123.607 124.143 123.607 121.335C123.607 118.527 121.416 116.251 118.713 116.251C116.009 116.251 113.818 118.527 113.818 121.335C113.818 124.143 116.009 126.419 118.713 126.419Z" fill="white"/>
<path d="M104.845 126.419C107.548 126.419 109.739 124.143 109.739 121.335C109.739 118.527 107.548 116.251 104.845 116.251C102.142 116.251 99.9504 118.527 99.9504 121.335C99.9504 124.143 102.142 126.419 104.845 126.419Z" fill="white"/>
<path d="M132.58 126.419C135.283 126.419 137.475 124.143 137.475 121.335C137.475 118.527 135.283 116.251 132.58 116.251C129.877 116.251 127.686 118.527 127.686 121.335C127.686 124.143 129.877 126.419 132.58 126.419Z" fill="white"/>
<path d="M241.793 101.214H195.28C194.719 101.214 194.182 100.982 193.785 100.571C193.389 100.159 193.166 99.6003 193.166 99.0178C193.166 98.4354 193.389 97.8769 193.785 97.465C194.182 97.0532 194.719 96.8219 195.28 96.8219H241.793C242.354 96.8219 242.892 97.0532 243.288 97.465C243.685 97.8769 243.908 98.4354 243.908 99.0178C243.908 99.6003 243.685 100.159 243.288 100.571C242.892 100.982 242.354 101.214 241.793 101.214Z" fill="#CCCCCC"/>
<path d="M211.401 91.8809H195.28C194.719 91.8809 194.182 91.6495 193.785 91.2377C193.389 90.8259 193.166 90.2673 193.166 89.6849C193.166 89.1025 193.389 88.5439 193.785 88.1321C194.182 87.7202 194.719 87.4889 195.28 87.4889H211.401C211.962 87.4889 212.5 87.7202 212.896 88.1321C213.293 88.5439 213.515 89.1025 213.515 89.6849C213.515 90.2673 213.293 90.8259 212.896 91.2377C212.5 91.6495 211.962 91.8809 211.401 91.8809Z" fill="#CCCCCC"/>
<path d="M174.212 103.89C179.175 103.89 183.198 99.7112 183.198 94.5567C183.198 89.4023 179.175 85.2237 174.212 85.2237C169.25 85.2237 165.227 89.4023 165.227 94.5567C165.227 99.7112 169.25 103.89 174.212 103.89Z" fill="white"/>
<path d="M246.456 80.2828H162.679C161.488 80.2845 160.346 80.7767 159.504 81.6515C158.662 82.5262 158.188 83.7122 158.186 84.9492V104.164C158.188 105.401 158.662 106.587 159.504 107.462C160.346 108.337 161.488 108.829 162.679 108.831H246.456C247.647 108.829 248.789 108.337 249.631 107.462C250.473 106.587 250.947 105.401 250.948 104.164V84.9492C250.947 83.7122 250.473 82.5262 249.631 81.6515C248.789 80.7767 247.647 80.2845 246.456 80.2828V80.2828ZM250.42 104.164C250.419 105.256 250.001 106.302 249.257 107.074C248.514 107.846 247.507 108.28 246.456 108.282H162.679C161.628 108.28 160.62 107.846 159.877 107.074C159.134 106.302 158.716 105.256 158.715 104.164V84.9492C158.716 83.8576 159.134 82.8111 159.877 82.0392C160.62 81.2673 161.628 80.8331 162.679 80.8318H246.456C247.507 80.8331 248.514 81.2673 249.257 82.0392C250.001 82.8111 250.419 83.8576 250.42 84.9492V104.164Z" fill="#3F3D56"/>
<path d="M250.42 87.9688C253.777 87.9688 256.498 85.1421 256.498 81.6553C256.498 78.1684 253.777 75.3418 250.42 75.3418C247.063 75.3418 244.342 78.1684 244.342 81.6553C244.342 85.1421 247.063 87.9688 250.42 87.9688Z" fill="white"/>
<path d="M250.233 85.2059C250.209 85.1804 250.189 85.1502 250.176 85.1169C250.162 85.0836 250.156 85.0479 250.156 85.0118V78.0242C250.156 77.9514 250.184 77.8816 250.233 77.8301C250.283 77.7786 250.35 77.7497 250.42 77.7497C250.49 77.7497 250.557 77.7786 250.607 77.8301C250.656 77.8816 250.684 77.9514 250.684 78.0242V85.0118C250.684 85.0661 250.669 85.1191 250.64 85.1643C250.611 85.2094 250.569 85.2446 250.521 85.2654C250.473 85.2861 250.42 85.2916 250.368 85.281C250.317 85.2704 250.27 85.2443 250.233 85.2059V85.2059Z" fill="white"/>
<path d="M246.869 81.7121C246.832 81.6737 246.807 81.6248 246.797 81.5716C246.787 81.5183 246.792 81.4631 246.812 81.413C246.832 81.3628 246.866 81.32 246.909 81.2898C246.953 81.2596 247.004 81.2435 247.056 81.2435H253.784C253.854 81.2435 253.921 81.2725 253.971 81.3239C254.02 81.3754 254.048 81.4452 254.048 81.518C254.048 81.5908 254.02 81.6606 253.971 81.7121C253.921 81.7635 253.854 81.7925 253.784 81.7925H247.056C247.022 81.7925 246.987 81.7855 246.955 81.7717C246.923 81.7579 246.894 81.7376 246.869 81.7121V81.7121Z" fill="white"/>
<path d="M257.696 165.571H245.008C245.008 165.95 231.932 166.258 231.932 166.258C231.727 166.418 231.54 166.602 231.374 166.807C230.878 167.422 230.606 168.2 230.608 169.003V169.552C230.608 170.462 230.956 171.334 231.576 171.978C232.195 172.621 233.035 172.983 233.911 172.983H257.696C258.572 172.982 259.412 172.62 260.032 171.977C260.651 171.334 260.999 170.461 261 169.552V169.003C260.999 168.093 260.65 167.221 260.031 166.578C259.412 165.935 258.572 165.573 257.696 165.571Z" fill="#3F3D56"/>
<path d="M247.653 172.847H244.217V195.904H247.653V172.847Z" fill="#3F3D56"/>
<path d="M257.431 195.779C257.431 196.165 252.225 195.928 245.803 195.928C239.38 195.928 234.174 196.165 234.174 195.779C234.174 195.394 239.38 192.336 245.803 192.336C252.225 192.336 257.431 195.394 257.431 195.779Z" fill="#3F3D56"/>
<path d="M247.037 134.672C251.124 134.672 254.437 131.23 254.437 126.986C254.437 122.741 251.124 119.3 247.037 119.3C242.95 119.3 239.637 122.741 239.637 126.986C239.637 131.23 242.95 134.672 247.037 134.672Z" fill="#2F2E41"/>
<path d="M228.622 192.746L225.382 192.746L223.84 179.766L228.622 179.766L228.622 192.746Z" fill="#FFB8B8"/>
<path d="M223.067 191.785H229.316V195.871H219.133C219.133 194.787 219.548 193.748 220.285 192.982C221.023 192.215 222.024 191.785 223.067 191.785V191.785Z" fill="#2F2E41"/>
<path d="M223.564 190.868L220.473 189.86L222.744 176.996L227.306 178.483L223.564 190.868Z" fill="#FFB8B8"/>
<path d="M218.542 188.223L224.504 190.167L223.326 194.066L213.61 190.899C213.922 189.865 214.618 189.002 215.542 188.5C216.467 187.998 217.546 187.899 218.542 188.223V188.223Z" fill="#2F2E41"/>
<path d="M249.019 163.321C248.944 162.667 248.81 162.022 248.618 161.394L248.012 160.604L246.437 158.551L246.369 158.553C246.252 158.559 245.769 158.586 245.021 158.647H245.013C244.55 158.685 243.985 158.734 243.342 158.798C243.173 158.817 242.996 158.833 242.814 158.852V161.718H246.117C246.278 161.718 246.433 161.779 246.554 161.889C246.674 161.999 246.752 162.151 246.773 162.317C246.775 162.347 246.778 162.374 246.778 162.404C246.778 162.586 246.708 162.761 246.585 162.89C246.461 163.018 246.293 163.091 246.117 163.091H226.931C226.686 163.259 226.451 163.443 226.228 163.64C225.552 164.183 225.065 164.941 224.84 165.797C223.72 170.914 221.677 180.455 221.074 183.258C221.03 183.469 221.04 183.689 221.103 183.895C221.165 184.101 221.278 184.286 221.431 184.433C221.543 184.542 221.675 184.627 221.819 184.683L224.203 185.611C224.301 185.648 224.403 185.673 224.507 185.685C224.52 185.685 224.531 185.687 224.544 185.687C224.569 185.69 224.593 185.691 224.618 185.69C224.859 185.689 225.094 185.613 225.293 185.471C225.491 185.329 225.644 185.128 225.731 184.894L227.612 179.766L230.512 171.861L231.659 168.734C232.988 169.058 244.141 171.622 247.875 167.491C248.243 167.084 248.534 166.608 248.731 166.088C249.045 165.205 249.144 164.254 249.019 163.321Z" fill="#2F2E41"/>
<path d="M252.254 164.068C252.196 163.824 252.13 163.571 252.053 163.316L249.873 160.472L249.804 160.475C249.667 160.483 249.014 160.519 248.012 160.604C246.876 160.703 245.288 160.862 243.504 161.112C243.451 161.117 243.395 161.125 243.342 161.133C243.168 161.158 242.991 161.183 242.814 161.21V161.718H246.117C246.278 161.718 246.433 161.779 246.554 161.889C246.674 161.999 246.752 162.151 246.773 162.317C246.775 162.347 246.778 162.374 246.778 162.404C246.778 162.586 246.708 162.761 246.585 162.89C246.461 163.018 246.293 163.091 246.117 163.091H234.441C233.931 163.264 233.44 163.445 232.969 163.64C230.501 164.655 228.654 165.987 228.276 167.719C228.149 168.301 228.009 168.94 227.861 169.621C227.311 172.152 226.643 175.251 226.037 178.067V178.07C225.913 178.652 225.789 179.217 225.67 179.766C225.165 182.127 224.737 184.128 224.51 185.18C224.504 185.21 224.499 185.237 224.494 185.267V185.273C224.468 185.486 224.493 185.702 224.568 185.902L224.571 185.904V185.907C224.643 186.098 224.762 186.267 224.914 186.398C225.016 186.486 225.131 186.555 225.255 186.604L227.639 187.532C227.772 187.584 227.912 187.611 228.054 187.612C228.252 187.612 228.448 187.56 228.622 187.461C228.872 187.32 229.065 187.091 229.166 186.816L234.299 172.827L235.094 170.656C236.424 170.98 247.576 173.541 251.31 169.412C252.048 168.583 252.469 167.502 252.494 166.374C252.521 165.597 252.44 164.821 252.254 164.068V164.068Z" fill="#2F2E41"/>
<path d="M251.961 139.852C251.918 139.799 251.873 139.747 251.826 139.698C251.122 138.929 250.253 138.345 249.289 137.992C248.326 137.64 247.296 137.529 246.284 137.669C245.401 137.79 244.526 137.969 243.665 138.205C242.553 138.502 241.534 139.095 240.71 139.926C240.068 140.572 239.563 141.35 239.226 142.21C238.889 143.07 238.727 143.993 238.752 144.922C238.762 145.298 238.765 145.682 238.76 146.072C238.76 146.253 238.757 146.437 238.755 146.621H241.36C241.473 146.62 241.586 146.634 241.696 146.662C242.014 146.741 242.297 146.929 242.5 147.195C242.703 147.461 242.813 147.791 242.814 148.13V160.9C242.991 160.952 243.168 161.004 243.342 161.059C243.398 161.079 243.451 161.095 243.504 161.112C243.564 161.131 243.625 161.15 243.683 161.169C244.22 161.342 244.744 161.525 245.256 161.718H246.117C246.278 161.718 246.433 161.779 246.553 161.889C246.674 161.999 246.752 162.151 246.773 162.317C246.953 162.391 247.127 162.465 247.299 162.539C247.909 162.802 248.488 163.066 249.019 163.321C249.735 163.662 250.372 163.986 250.906 164.268C251.074 164.357 251.26 164.404 251.448 164.405C251.695 164.405 251.936 164.322 252.135 164.169C252.176 164.138 252.216 164.104 252.254 164.068C252.395 163.93 252.502 163.759 252.565 163.568C252.628 163.378 252.646 163.174 252.616 162.975C252.343 160.819 252.264 158.641 252.378 156.47C252.452 154.644 252.611 152.772 252.817 150.963C252.928 149.983 253.052 149.023 253.182 148.097C253.306 147.214 253.438 146.365 253.567 145.564C253.737 144.548 253.681 143.504 253.402 142.514C253.124 141.524 252.631 140.613 251.961 139.852V139.852Z" fill="white"/>
<path d="M241.128 140.077C240.992 140.016 240.853 139.966 240.71 139.926C240.006 139.729 239.257 139.801 238.6 140.131C237.943 140.46 237.422 141.023 237.132 141.718L235.316 146.072L235.089 146.621H241.36C241.473 146.62 241.586 146.634 241.696 146.662L241.907 146.154L242.711 144.227C243.03 143.459 243.042 142.59 242.746 141.812C242.449 141.034 241.867 140.41 241.128 140.077V140.077Z" fill="white"/>
<path d="M246.766 135.526C250.351 135.526 253.257 132.507 253.257 128.784C253.257 125.06 250.351 122.042 246.766 122.042C243.182 122.042 240.275 125.06 240.275 128.784C240.275 132.507 243.182 135.526 246.766 135.526Z" fill="#FFB8B8"/>
<path d="M240.159 125.471C243.233 127.421 246.699 128.607 250.287 128.938L249.22 127.609C249.997 127.908 250.815 128.077 251.643 128.109C252.471 128.096 253.337 127.765 253.807 127.057C254.016 126.706 254.141 126.306 254.17 125.894C254.198 125.481 254.131 125.068 253.972 124.688C253.647 123.932 253.14 123.274 252.501 122.778C251.368 121.847 250.031 121.221 248.608 120.957C247.186 120.693 245.723 120.799 244.35 121.265C243.407 121.557 242.564 122.119 241.915 122.887C241.3 123.675 240.115 124.378 240.43 125.339L240.159 125.471Z" fill="#2F2E41"/>
<path d="M247.858 120.031C245.811 117.874 243.333 116.21 240.6 115.156C238.845 114.481 236.936 114.064 235.102 114.447C233.267 114.83 231.533 116.148 231.021 118.018C230.603 119.546 231.035 121.192 231.684 122.631C232.333 124.07 233.2 125.404 233.725 126.896C234.261 128.419 234.422 130.057 234.194 131.661C233.966 133.265 233.356 134.785 232.419 136.081C231.482 137.378 230.248 138.412 228.829 139.088C227.41 139.764 225.851 140.061 224.294 139.952C226.096 140.203 227.757 141.083 229.519 141.551C231.28 142.019 233.359 141.988 234.668 140.677C236.053 139.29 236.081 137.035 236.014 135.038C235.915 132.069 235.815 129.1 235.716 126.132C235.665 124.618 235.621 123.055 236.147 121.642C236.673 120.229 237.922 118.992 239.381 119.005C240.486 119.014 241.464 119.71 242.351 120.396C243.237 121.082 244.175 121.813 245.276 121.915C246.377 122.017 247.635 121.171 247.552 120.026L247.858 120.031Z" fill="#2F2E41"/>
<path d="M253.182 148.098L249.476 148.202L249.207 150.906L249.146 151.532L243.342 154.238L242.814 154.485V159.297L243.342 159.141L245.013 158.647H245.021L252.378 156.47L252.463 156.445C253.057 156.267 253.58 155.894 253.955 155.382C254.329 154.87 254.534 154.247 254.54 153.604L254.558 150.412L254.574 148.059L253.182 148.098Z" fill="#FFB8B8"/>
<path d="M254.387 142.75C254.337 141.915 253.97 141.133 253.366 140.579C252.763 140.024 251.971 139.741 251.167 139.793C250.362 139.844 249.61 140.225 249.076 140.852C248.542 141.48 248.27 142.302 248.319 143.137L248.723 149.989C248.734 150.169 248.783 150.345 248.867 150.503C248.95 150.662 249.066 150.799 249.207 150.906C249.43 151.079 249.706 151.163 249.984 151.144L252.817 150.963L253.676 150.908C253.832 150.9 253.986 150.86 254.126 150.788C254.267 150.717 254.393 150.617 254.495 150.494C254.518 150.468 254.539 150.44 254.559 150.412C254.727 150.178 254.809 149.89 254.791 149.599L254.387 142.75Z" fill="white"/>
<path d="M243.683 161.169H243.342V161.133C243.168 161.158 242.991 161.183 242.814 161.21V161.718H245.256C244.743 161.526 244.219 161.343 243.683 161.169ZM243.683 161.169H243.342V161.133C243.168 161.158 242.991 161.183 242.814 161.21V161.718H245.256C244.743 161.526 244.219 161.343 243.683 161.169ZM246.117 161.169H243.342V148.13C243.342 147.684 243.201 147.25 242.942 146.894C242.684 146.537 242.32 146.278 241.907 146.154C241.73 146.099 241.546 146.071 241.36 146.072H217.839C217.314 146.072 216.81 146.289 216.439 146.675C216.067 147.061 215.858 147.585 215.857 148.13V161.581C215.857 162.127 216.066 162.65 216.438 163.036C216.81 163.422 217.314 163.639 217.839 163.64H246.117C246.41 163.639 246.692 163.527 246.91 163.324C247.128 163.12 247.267 162.841 247.299 162.539C247.304 162.494 247.307 162.449 247.307 162.404C247.306 162.077 247.181 161.763 246.958 161.531C246.735 161.3 246.433 161.17 246.117 161.169V161.169ZM246.778 162.404C246.778 162.586 246.708 162.761 246.585 162.89C246.461 163.018 246.293 163.091 246.117 163.091H217.839C217.454 163.09 217.084 162.931 216.812 162.648C216.539 162.365 216.386 161.981 216.386 161.581V148.13C216.386 147.73 216.539 147.346 216.812 147.063C217.084 146.78 217.454 146.621 217.839 146.621H241.36C241.473 146.62 241.586 146.634 241.696 146.662C242.014 146.741 242.297 146.929 242.5 147.195C242.703 147.461 242.813 147.791 242.814 148.13V161.718H246.117C246.278 161.718 246.433 161.779 246.554 161.889C246.674 161.999 246.752 162.151 246.773 162.317C246.775 162.347 246.778 162.374 246.778 162.404V162.404ZM243.683 161.169H243.342V161.133C243.168 161.158 242.991 161.183 242.814 161.21V161.718H245.256C244.743 161.526 244.219 161.343 243.683 161.169Z" fill="#3F3D56"/>
<path d="M229.599 156.503C230.475 156.503 231.185 155.766 231.185 154.856C231.185 153.947 230.475 153.209 229.599 153.209C228.723 153.209 228.013 153.947 228.013 154.856C228.013 155.766 228.723 156.503 229.599 156.503Z" fill="white"/>
<path d="M87.9667 19.5904C87.9608 19.7159 87.9645 19.8416 87.9776 19.9664L79.6787 27.2005L77.2039 26.2698L75.3634 29.9656L80.7741 32.6407L89.8468 22.066C90.305 22.1523 90.7775 22.0917 91.2017 21.8923C91.6259 21.6928 91.9815 21.364 92.2214 20.9495C92.4612 20.535 92.5739 20.0545 92.5444 19.5718C92.515 19.0892 92.3447 18.6273 92.0563 18.2476C91.768 17.8679 91.3751 17.5884 90.9301 17.4462C90.4851 17.3041 90.0089 17.306 89.565 17.4518C89.121 17.5976 88.7303 17.8803 88.4448 18.2623C88.1593 18.6443 87.9926 19.1076 87.9667 19.5904L87.9667 19.5904Z" fill="#FFB8B8"/>
<path d="M76.8364 31.7383L68.8224 28.7338C68.0867 28.458 67.4866 27.8899 67.1542 27.1545C66.8217 26.4191 66.7841 25.5767 67.0497 24.8125C67.3152 24.0483 67.8622 23.425 68.5702 23.0797C69.2782 22.7344 70.0893 22.6954 70.825 22.9712L78.839 25.9757C78.9604 26.0212 79.0721 26.0911 79.1675 26.1814C79.2629 26.2717 79.3402 26.3807 79.3951 26.502C79.45 26.6234 79.4813 26.7548 79.4872 26.8888C79.4932 27.0227 79.4737 27.1565 79.4299 27.2827L78.0949 31.1245C78.0061 31.379 77.8237 31.5866 77.5878 31.7016C77.3519 31.8167 77.0817 31.8299 76.8364 31.7383V31.7383Z" fill="#CCCCCC"/>
<path d="M70.9672 61.008L73.6455 61.0077L74.9196 50.2775L70.9667 50.2778L70.9672 61.008Z" fill="#FFB8B8"/>
<path d="M78.8108 63.5907L70.3933 63.5911L70.3932 60.2131L75.5585 60.2129C76.421 60.2128 77.2483 60.5687 77.8582 61.2021C78.4681 61.8356 78.8108 62.6948 78.8109 63.5907V63.5907L78.8108 63.5907Z" fill="#2F2E41"/>
<path d="M64.3481 57.4142L66.539 59.0143L73.5234 50.9981L70.2899 48.6368L64.3481 57.4142Z" fill="#FFB8B8"/>
<path d="M69.0697 63.6642L62.1838 58.6356L64.0544 55.8723L68.2798 58.958C68.9854 59.4733 69.4651 60.2586 69.6132 61.1412C69.7613 62.0238 69.5658 62.9314 69.0697 63.6642V63.6642L69.0697 63.6642Z" fill="#2F2E41"/>
<path d="M76.8277 41.6789C76.8277 41.6789 83.5116 40.8598 82.3119 45.3647C81.1122 49.8697 67.7445 53.7603 67.7445 53.7603L76.8277 41.6789Z" fill="#FFB8B8"/>
<path d="M72.2273 18.6925C75.1907 18.6925 77.593 16.1973 77.593 13.1194C77.593 10.0414 75.1907 7.54622 72.2273 7.54622C69.2639 7.54622 66.8616 10.0414 66.8616 13.1194C66.8616 16.1973 69.2639 18.6925 72.2273 18.6925Z" fill="#FFB8B8"/>
<path d="M55.1158 52.8378C52.0627 49.1452 50.9942 43.478 55.8633 38.7646C57.0658 37.6291 58.4273 36.6899 59.9014 35.9791L63.8256 24.5805C64.2332 23.3902 64.9806 22.3573 65.968 21.6195C66.9554 20.8818 68.1359 20.4744 69.352 20.4516C70.5328 20.3986 71.7003 20.7267 72.6944 21.3907C73.6884 22.0547 74.4602 23.022 74.9037 24.1599C75.3829 25.3175 75.4377 26.6172 75.0578 27.8139C73.8896 31.5925 72.3556 35.2382 70.4791 38.6952L70.682 40.3813L80.6009 41.2969L80.5084 41.4531C80.4601 41.5347 75.6056 49.217 69.3954 54.3163C67.272 56.0598 65.0762 56.7824 63.0038 56.7822C59.8613 56.7819 57.003 55.1202 55.1158 52.8378Z" fill="#CCCCCC"/>
<path d="M54.1797 14.8678C55.1289 13.6929 55.5361 12.1561 55.8637 10.6605C56.3819 8.29413 56.783 5.84719 57.9344 3.73544C59.0857 1.62372 61.2016 -0.126055 63.5346 0.00713455C65.8543 0.139564 67.7297 2.07799 68.7252 4.28353C68.9662 4.18629 69.2243 4.14273 69.4826 4.15566C69.7409 4.1686 69.9937 4.23775 70.2246 4.35863C70.9421 4.76671 71.2104 5.92663 70.6131 6.5073C71.2412 6.19664 71.9253 6.02679 72.6207 6.00878C73.3162 5.99077 74.0076 6.12502 74.6498 6.40278C75.4756 6.76796 76.1885 7.36266 76.71 8.12147C77.2314 8.88029 77.5413 9.77379 77.6054 10.7037C77.6305 11.0811 77.5806 11.4599 77.4589 11.8164C77.3372 12.173 77.1464 12.4999 76.8981 12.7767C75.8686 13.8775 74.4125 13.4978 73.1179 13.2173C71.895 12.9525 70.4056 12.881 69.7167 14.0912C69.4452 14.5954 69.3692 15.1883 69.5042 15.7488C69.7681 16.9569 70.6292 17.7984 71.4647 18.6037L71.6013 18.8674C68.6515 19.4648 65.4304 17.3724 64.6566 14.3561C63.8828 11.3398 65.6745 7.8601 68.5194 6.85387C68.33 6.85999 68.1426 6.81349 67.9763 6.71918C67.8101 6.62486 67.6711 6.48615 67.5737 6.31738C67.4763 6.1486 67.4241 5.95589 67.4225 5.75914C67.4208 5.56239 67.4697 5.36875 67.5642 5.19822C66.7768 4.74001 65.8855 4.50906 64.9831 4.52935C63.5136 4.62948 62.2419 5.71597 61.4772 7.02315C60.7123 8.33035 60.3661 9.8476 60.0152 11.3332C59.6645 12.8188 59.2848 14.3328 58.4671 15.6049C57.9007 16.486 57.1439 17.2175 56.2571 17.7408C55.3702 18.2642 54.3778 18.565 53.3592 18.6193C52.3405 18.6735 51.3237 18.4798 50.39 18.0534C49.4562 17.627 48.6313 16.9799 47.9811 16.1636C49.0086 16.6811 50.1711 16.8346 51.2906 16.6006C52.4101 16.3665 53.4249 15.7579 54.1797 14.8678Z" fill="#2F2E41"/>
<path d="M93.5893 30.0559C97.8968 30.0559 101.389 26.429 101.389 21.9549C101.389 17.4809 97.8968 13.854 93.5893 13.854C89.2818 13.854 85.7899 17.4809 85.7899 21.9549C85.7899 26.429 89.2818 30.0559 93.5893 30.0559Z" fill="white"/>
<path d="M93.3495 26.5109C93.3179 26.4782 93.2929 26.4394 93.2759 26.3966C93.2589 26.3539 93.2501 26.3081 93.2502 26.2618V17.2958C93.2502 17.2024 93.2859 17.1129 93.3495 17.0468C93.4131 16.9808 93.4993 16.9437 93.5893 16.9437C93.6792 16.9437 93.7654 16.9808 93.829 17.0468C93.8926 17.1129 93.9283 17.2024 93.9283 17.2958V26.2618C93.9283 26.3315 93.9084 26.3996 93.8712 26.4575C93.8339 26.5154 93.781 26.5605 93.719 26.5872C93.6571 26.6138 93.5889 26.6208 93.5231 26.6072C93.4573 26.5937 93.3969 26.5601 93.3495 26.5109H93.3495Z" fill="white"/>
<path d="M89.0334 22.0279C88.986 21.9786 88.9537 21.9159 88.9406 21.8476C88.9275 21.7792 88.9343 21.7084 88.9599 21.6441C88.9856 21.5797 89.0291 21.5247 89.0848 21.486C89.1406 21.4473 89.2061 21.4267 89.2732 21.4267H97.9054C97.9953 21.4267 98.0816 21.4638 98.1451 21.5298C98.2087 21.5959 98.2445 21.6854 98.2445 21.7788C98.2445 21.8722 98.2087 21.9618 98.1451 22.0279C98.0816 22.0939 97.9953 22.131 97.9054 22.131H89.2732C89.2286 22.1311 89.1845 22.122 89.1434 22.1043C89.1022 22.0866 89.0649 22.0606 89.0334 22.0279Z" fill="white"/>
<path d="M88.2356 27.3734C88.1789 27.4843 88.1308 27.5997 88.0916 27.7185L77.6193 30.6029L75.76 28.6679L72.5817 31.2007L76.3847 36.0109L88.9244 30.4442C89.3038 30.7246 89.7563 30.8784 90.2219 30.8851C90.6874 30.8918 91.1439 30.7512 91.5307 30.4819C91.9174 30.2126 92.216 29.8274 92.3868 29.3775C92.5577 28.9276 92.5926 28.4343 92.4869 27.9634C92.3813 27.4924 92.1401 27.0659 91.7954 26.7408C91.4507 26.4156 91.0189 26.2072 90.5574 26.1431C90.0959 26.0791 89.6266 26.1625 89.2118 26.3823C88.7971 26.602 88.4566 26.9477 88.2356 27.3734L88.2356 27.3734Z" fill="#FFB8B8"/>
<path d="M73.1896 33.4557L67.165 27.1981C66.8904 26.9139 66.6724 26.5761 66.5236 26.2043C66.3748 25.8324 66.298 25.4337 66.2977 25.031C66.2973 24.6283 66.3735 24.2295 66.5217 23.8573C66.6699 23.4852 66.8873 23.1471 67.1615 22.8623C67.4356 22.5776 67.7612 22.3518 68.1194 22.1978C68.4777 22.0438 68.8617 21.9648 69.2494 21.9651C69.6371 21.9655 70.021 22.0452 70.379 22.1998C70.737 22.3544 71.0622 22.5808 71.3359 22.866L77.3605 29.1236C77.4518 29.2184 77.5242 29.3309 77.5736 29.4548C77.623 29.5787 77.6484 29.7114 77.6484 29.8455C77.6484 29.9796 77.623 30.1124 77.5736 30.2362C77.5242 30.3601 77.4518 30.4727 77.3605 30.5675L74.5799 33.4557C74.3954 33.6468 74.1454 33.7542 73.8848 33.7542C73.6241 33.7542 73.3742 33.6468 73.1896 33.4557V33.4557Z" fill="#CCCCCC"/>
</g>
<defs>
<clipPath id="clip0">
<rect width="261" height="196" fill="white"/>
</clipPath>
</defs>
</svg>
